<?xml version="1.0" encoding="UTF-8" standalone="no"?><!DOCTYPE svg PUBLIC "-//W3C//DTD SVG 1.1//EN" "http://www.w3.org/Graphics/SVG/1.1/DTD/svg11.dtd"><svg width="100%" height="100%" viewBox="0 0 45 45" version="1.1" xmlns="http://www.w3.org/2000/svg" xmlns:xlink="http://www.w3.org/1999/xlink" xml:space="preserve" xmlns:serif="http://www.serif.com/" style="fill-rule:evenodd;clip-rule:evenodd;stroke-linejoin:round;stroke-miterlimit:2;"><path d="M24.609,0c-9.956,0 -17.347,6.617 -17.573,15.732c-0.005,0.222 -0.041,0.428 -0.104,0.615l-3.81,11.434c-0.135,0.404 -0.08,0.843 0.151,1.2c0.228,0.36 0.604,0.593 1.027,0.64l2.104,0.236c0.357,0.038 0.626,0.338 0.626,0.698l0,6.38c0,1 0.426,1.953 1.17,2.62c0.744,0.667 1.741,0.986 2.733,0.873l2.041,-0.225l3.79,-0.423l-0.376,2.834c-0.08,0.602 0.104,1.208 0.505,1.667c0.398,0.456 0.978,0.717 1.585,0.717l18.63,0c0.596,0 1.17,-0.253 1.568,-0.698c0.398,-0.445 0.593,-1.038 0.53,-1.631l-1.011,-9.597c-0.096,-0.915 0.063,-1.829 0.461,-2.642c2.307,-4.73 3.529,-9.904 3.529,-14.963c0,-9.108 -7.229,-15.469 -17.578,-15.469Zm0,1.406c11.17,0 16.172,7.064 16.172,14.062c0,4.845 -1.173,9.808 -3.387,14.348c-0.514,1.049 -0.72,2.227 -0.596,3.403l1.011,9.597c0.022,0.201 -0.041,0.396 -0.179,0.547c-0.132,0.148 -0.321,0.231 -0.522,0.231l-18.63,0c-0.206,0 -0.393,-0.085 -0.527,-0.242c-0.137,-0.154 -0.195,-0.349 -0.168,-0.552l0.42,-3.178l2.263,-0.253c0.387,-0.044 0.665,-0.39 0.623,-0.775c-0.044,-0.387 -0.393,-0.667 -0.777,-0.623l-1.92,0.214l-7.614,0.846c-0.593,0.066 -1.195,-0.124 -1.64,-0.525c-0.453,-0.404 -0.703,-0.964 -0.703,-1.571l0,-6.38c0,-1.077 -0.807,-1.978 -1.879,-2.096l-2.101,-0.236l3.812,-11.431c0.104,-0.319 0.165,-0.665 0.173,-1.027c0.206,-8.319 7.004,-14.359 16.166,-14.359Zm0,2.109c-0.387,0 -0.703,0.316 -0.703,0.703l0,1.406c0,0.387 0.316,0.703 0.703,0.703c0.387,0 0.703,-0.316 0.703,-0.703l0,-1.406c0,-0.387 -0.316,-0.703 -0.703,-0.703Zm-3.815,0.522c-0.091,-0.014 -0.187,-0.008 -0.28,0.016c-0.374,0.102 -0.599,0.486 -0.497,0.862l0.363,1.357c0.085,0.316 0.368,0.522 0.681,0.522c0.058,0 0.121,-0.005 0.181,-0.022c0.374,-0.102 0.599,-0.489 0.497,-0.862l-0.363,-1.36c-0.077,-0.28 -0.313,-0.478 -0.582,-0.514Zm7.63,0c-0.272,0.036 -0.508,0.233 -0.582,0.514l-0.365,1.36c-0.099,0.374 0.124,0.761 0.497,0.862c0.063,0.014 0.124,0.022 0.184,0.022c0.31,0 0.596,-0.206 0.678,-0.522l0.365,-1.357c0.099,-0.376 -0.124,-0.761 -0.497,-0.862c-0.096,-0.025 -0.19,-0.03 -0.28,-0.016Zm-11.461,1.508c-0.091,0.011 -0.179,0.041 -0.264,0.091c-0.338,0.192 -0.45,0.623 -0.255,0.961l0.703,1.214c0.129,0.228 0.365,0.352 0.607,0.352c0.121,0 0.242,-0.027 0.352,-0.091c0.338,-0.195 0.45,-0.626 0.255,-0.964l-0.703,-1.214c-0.143,-0.253 -0.423,-0.382 -0.695,-0.349Zm15.293,0.003c-0.275,-0.036 -0.552,0.093 -0.695,0.346l-0.703,1.217c-0.195,0.335 -0.082,0.766 0.255,0.961c0.11,0.063 0.231,0.093 0.352,0.093c0.242,0 0.478,-0.126 0.607,-0.352l0.703,-1.217c0.195,-0.338 0.08,-0.766 -0.255,-0.961c-0.085,-0.049 -0.173,-0.077 -0.264,-0.088Zm-7.668,4.296c-5.029,0 -9.119,4.09 -9.119,9.119c0,2.395 1.241,4.134 2.34,5.666c0.967,1.351 1.879,2.628 1.879,4.202l0,1.404c0,2.714 2.208,4.922 4.922,4.922c2.714,0 4.922,-2.208 4.922,-4.922l0,-1.406c0,-1.574 0.904,-2.848 1.859,-4.2c1.088,-1.535 2.315,-3.274 2.315,-5.666c0,-5.029 -4.09,-9.119 -9.119,-9.119Zm0,1.406c4.252,0 7.712,3.461 7.712,7.712c0,1.947 -0.997,3.359 -2.054,4.853c-0.92,1.294 -1.862,2.628 -2.076,4.309l-7.119,0c-0.217,-1.681 -1.173,-3.016 -2.098,-4.315c-1.068,-1.491 -2.076,-2.903 -2.076,-4.848c0,-4.252 3.461,-7.712 7.712,-7.712Zm-2.791,7.031c-0.179,0 -0.36,0.069 -0.497,0.206c-0.275,0.275 -0.275,0.72 0,0.994l1.406,1.406c0.137,0.137 0.316,0.206 0.497,0.206c0.181,0 0.36,-0.069 0.497,-0.206c0.275,-0.275 0.275,-0.72 0,-0.994l-1.406,-1.406c-0.137,-0.137 -0.319,-0.206 -0.497,-0.206Zm5.625,0c-0.179,0 -0.36,0.069 -0.497,0.206l-2.812,2.812c-0.132,0.132 -0.206,0.31 -0.206,0.497l0,4.219c0,0.387 0.316,0.703 0.703,0.703c0.387,0 0.703,-0.316 0.703,-0.703l0,-3.928l2.607,-2.607c0.275,-0.275 0.275,-0.72 0,-0.994c-0.137,-0.137 -0.319,-0.206 -0.497,-0.206Zm0.703,11.25l0,0.703c0,1.939 -1.577,3.516 -3.516,3.516c-1.939,0 -3.516,-1.577 -3.516,-3.516l0,-0.7l7.031,-0.003Z" style="fill:#1ab69d;fill-rule:nonzero;"/></svg>