<?xml version="1.0" encoding="UTF-8" standalone="no"?><!DOCTYPE svg PUBLIC "-//W3C//DTD SVG 1.1//EN" "http://www.w3.org/Graphics/SVG/1.1/DTD/svg11.dtd"><svg width="100%" height="100%" viewBox="0 0 45 45" version="1.1" xmlns="http://www.w3.org/2000/svg" xmlns:xlink="http://www.w3.org/1999/xlink" xml:space="preserve" xmlns:serif="http://www.serif.com/" style="fill-rule:evenodd;clip-rule:evenodd;stroke-linejoin:round;stroke-miterlimit:2;"><path d="M4.922,4.922c-1.545,0 -2.812,1.267 -2.812,2.812l0,29.531c0,1.545 1.267,2.812 2.812,2.812l35.156,0c1.545,0 2.812,-1.267 2.812,-2.812l0,-29.531c0,-1.545 -1.267,-2.812 -2.812,-2.812l-35.156,0Zm0,1.406l35.156,0c0.785,0 1.406,0.621 1.406,1.406l0,29.531c0,0.785 -0.621,1.406 -1.406,1.406l-35.156,0c-0.785,0 -1.406,-0.621 -1.406,-1.406l0,-29.531c0,-0.785 0.621,-1.406 1.406,-1.406Zm2.109,2.812c-0.386,0 -0.703,0.317 -0.703,0.703l0,4.219c-0,0.003 -0,0.007 -0,0.01c0,0.386 0.317,0.703 0.703,0.703c0.386,0 0.703,-0.317 0.703,-0.703c0,-0.003 -0,-0.007 -0,-0.01l0,-3.516l29.531,0l0,23.906l-2.812,0l0,-2.109c-0,-0.386 -0.317,-0.703 -0.703,-0.703l-7.734,0c-0.386,0 -0.703,0.317 -0.703,0.703l0,2.109l-17.578,0l0,-12.656c0,-0.003 0,-0.007 0,-0.01c0,-0.386 -0.317,-0.703 -0.703,-0.703c-0.386,0 -0.703,0.317 -0.703,0.703c0,0.003 0,0.007 0,0.01l0,13.359c0,0.386 0.317,0.703 0.703,0.703l30.938,0c0.386,-0 0.703,-0.317 0.703,-0.703l0,-25.312c-0,-0.386 -0.317,-0.703 -0.703,-0.703l-30.938,0Zm4.922,2.627c-0.388,0 -0.703,0.315 -0.703,0.703l0,1.406c0,0.388 0.315,0.703 0.703,0.703c0.388,0 0.703,-0.315 0.703,-0.703l0,-1.406c0,-0.388 -0.315,-0.703 -0.703,-0.703Zm3.516,0c-0.388,0 -0.703,0.315 -0.703,0.703l0,1.406c0,0.388 0.315,0.703 0.703,0.703c0.388,0 0.703,-0.315 0.703,-0.703l0,-1.406c0,-0.388 -0.315,-0.703 -0.703,-0.703Zm3.516,0c-0.388,0 -0.703,0.315 -0.703,0.703l0,1.406c0,0.388 0.315,0.703 0.703,0.703c0.388,0 0.703,-0.315 0.703,-0.703l0,-1.406c0,-0.388 -0.315,-0.703 -0.703,-0.703Zm3.516,0c-0.388,0 -0.703,0.315 -0.703,0.703l0,1.406c0,0.388 0.315,0.703 0.703,0.703c0.388,0 0.703,-0.315 0.703,-0.703l0,-1.406c0,-0.388 -0.315,-0.703 -0.703,-0.703Zm3.516,0c-0.388,0 -0.703,0.315 -0.703,0.703l0,1.406c0,0.388 0.315,0.703 0.703,0.703c0.388,0 0.703,-0.315 0.703,-0.703l0,-1.406c0,-0.388 -0.315,-0.703 -0.703,-0.703Zm3.516,0c-0.388,0 -0.703,0.315 -0.703,0.703l0,1.406c0,0.388 0.315,0.703 0.703,0.703c0.388,0 0.703,-0.315 0.703,-0.703l0,-1.406c0,-0.388 -0.315,-0.703 -0.703,-0.703Zm3.516,0c-0.388,0 -0.703,0.315 -0.703,0.703l0,1.406c0,0.388 0.315,0.703 0.703,0.703c0.388,0 0.703,-0.315 0.703,-0.703l0,-1.406c0,-0.388 -0.315,-0.703 -0.703,-0.703Zm-26.027,4.395c-0.385,0.006 -0.697,0.328 -0.692,0.713l0,2.433c-0,0.003 -0,0.007 -0,0.01c0,0.386 0.317,0.703 0.703,0.703c0.386,0 0.703,-0.317 0.703,-0.703c0,-0.003 -0,-0.007 -0,-0.01l0,-2.433c0,-0.003 0,-0.006 0,-0.01c0,-0.386 -0.317,-0.703 -0.703,-0.703c-0.004,0 -0.007,0 -0.011,0Zm15.48,0.01c-1.113,0 -2.038,0.443 -2.635,1.115c-0.598,0.672 -0.88,1.541 -0.88,2.401c0,0.859 0.283,1.728 0.88,2.401c0.598,0.672 1.522,1.115 2.635,1.115c1.113,0 2.038,-0.443 2.635,-1.115c0.598,-0.672 0.88,-1.541 0.88,-2.401c0,-0.859 -0.283,-1.728 -0.88,-2.401c-0.598,-0.672 -1.522,-1.115 -2.635,-1.115Zm0,7.031c-1.904,0 -3.613,0.585 -4.878,1.445c-0.049,0.033 -0.093,0.069 -0.14,0.103c-0.367,-0.084 -0.767,-0.112 -1.156,-0.161c0.519,-0.151 0.986,-0.381 1.309,-0.744c0.493,-0.555 0.725,-1.268 0.725,-1.971c0,-0.703 -0.232,-1.416 -0.725,-1.971c-0.493,-0.555 -1.261,-0.92 -2.166,-0.92c-0.905,0 -1.672,0.365 -2.166,0.92c-0.493,0.555 -0.725,1.268 -0.725,1.971c0,0.703 0.232,1.416 0.725,1.971c0.317,0.357 0.774,0.586 1.281,0.739c-1.141,0.144 -2.195,0.475 -2.997,1.019c-1.011,0.687 -1.744,1.608 -1.744,2.681l0,1.247c0,0.386 0.317,0.703 0.703,0.703l23.906,0c0.386,-0 0.703,-0.317 0.703,-0.703l0,-1.247c0,-1.072 -0.733,-1.994 -1.744,-2.681c-0.801,-0.544 -1.856,-0.875 -2.997,-1.019c0.507,-0.153 0.964,-0.382 1.281,-0.739c0.493,-0.555 0.725,-1.268 0.725,-1.971c0,-0.703 -0.232,-1.416 -0.725,-1.971c-0.493,-0.555 -1.261,-0.92 -2.166,-0.92c-0.905,0 -1.672,0.365 -2.166,0.92c-0.493,0.555 -0.725,1.268 -0.725,1.971c0,0.703 0.232,1.416 0.725,1.971c0.322,0.363 0.789,0.593 1.307,0.744c-0.389,0.048 -0.788,0.077 -1.155,0.161c-0.047,-0.034 -0.091,-0.07 -0.14,-0.103c-1.265,-0.859 -2.974,-1.445 -4.878,-1.445Zm0,-5.625c0.762,0 1.244,0.26 1.583,0.643c0.34,0.382 0.526,0.92 0.526,1.467c0,0.547 -0.186,1.084 -0.526,1.467c-0.34,0.382 -0.822,0.643 -1.583,0.643c-0.762,0 -1.244,-0.26 -1.583,-0.643c-0.34,-0.382 -0.526,-0.92 -0.526,-1.467c0,-0.547 0.186,-1.084 0.526,-1.467c0.34,-0.382 0.822,-0.643 1.583,-0.643Zm-7.031,2.812c0.553,0 0.879,0.183 1.115,0.448c0.236,0.265 0.369,0.646 0.369,1.037c0,0.391 -0.134,0.772 -0.369,1.037c-0.236,0.265 -0.562,0.448 -1.115,0.448c-0.553,0 -0.879,-0.183 -1.115,-0.448c-0.236,-0.265 -0.369,-0.646 -0.369,-1.037c0,-0.391 0.134,-0.772 0.369,-1.037c0.236,-0.265 0.562,-0.448 1.115,-0.448Zm14.062,0c0.553,0 0.879,0.183 1.115,0.448c0.236,0.265 0.369,0.646 0.369,1.037c0,0.391 -0.134,0.772 -0.369,1.037c-0.236,0.265 -0.562,0.448 -1.115,0.448c-0.553,0 -0.879,-0.183 -1.115,-0.448c-0.236,-0.265 -0.369,-0.646 -0.369,-1.037c0,-0.391 0.134,-0.772 0.369,-1.037c0.236,-0.265 0.562,-0.448 1.115,-0.448Zm-7.031,4.219c1.612,0 3.067,0.509 4.087,1.202c1.02,0.693 1.538,1.56 1.538,2.116l0,0.901l-11.25,0l0,-0.901c0,-0.556 0.518,-1.423 1.538,-2.116c1.02,-0.693 2.475,-1.202 4.087,-1.202Zm-7.031,1.25c0.264,0 0.52,0.023 0.77,0.056c-0.478,0.611 -0.77,1.289 -0.77,2.012l0,0.901l-4.219,0l0,-0.544c0,-0.353 0.361,-0.997 1.127,-1.517c0.766,-0.52 1.87,-0.908 3.091,-0.908Zm14.062,0c1.221,0 2.325,0.387 3.091,0.908c0.766,0.52 1.127,1.165 1.127,1.517l0,0.544l-4.219,0l0,-0.901c0,-0.723 -0.293,-1.401 -0.77,-2.012c0.25,-0.033 0.507,-0.056 0.77,-0.056Zm-2.812,7.188l6.328,0l0,1.406l-6.328,0l0,-1.406Z" style="fill:#f92596;fill-rule:nonzero;"/></svg>