<?xml version="1.0" encoding="UTF-8" standalone="no"?><!DOCTYPE svg PUBLIC "-//W3C//DTD SVG 1.1//EN" "http://www.w3.org/Graphics/SVG/1.1/DTD/svg11.dtd"><svg width="100%" height="100%" viewBox="0 0 45 45" version="1.1" xmlns="http://www.w3.org/2000/svg" xmlns:xlink="http://www.w3.org/1999/xlink" xml:space="preserve" xmlns:serif="http://www.serif.com/" style="fill-rule:evenodd;clip-rule:evenodd;stroke-linejoin:round;stroke-miterlimit:2;"><path d="M18.331,2.812c-0.706,0 -1.365,0.352 -1.755,0.939l-2.186,3.279l-12.28,0c-1.165,0 -2.109,0.945 -2.109,2.109l0,6.891c0,1.143 0.544,2.156 1.406,2.802l0,17.729c0,1.555 1.258,2.812 2.812,2.812l36.562,0c1.555,0 2.812,-1.258 2.812,-2.812l0,-17.729c0.862,-0.645 1.406,-1.659 1.406,-2.802l0,-6.891c0,-1.165 -0.945,-2.109 -2.109,-2.109l-12.28,0l-2.186,-3.279c-0.39,-0.588 -1.049,-0.939 -1.755,-0.939l-8.339,0Zm0,1.406l8.339,0c0.236,0 0.453,0.118 0.585,0.313l1.664,2.499l-12.838,0l1.664,-2.499c0.132,-0.195 0.349,-0.313 0.585,-0.313Zm-16.221,4.219l40.781,0c0.387,0 0.703,0.316 0.703,0.703l0,0.703c-0.387,0 -0.703,0.313 -0.703,0.703l0,1.406c0,0.39 0.316,0.703 0.703,0.703l0,3.376c0,0.994 -0.676,1.84 -1.645,2.06l-16.636,3.755l0,-0.049c0,-0.775 -0.632,-1.406 -1.406,-1.406l-2.812,0c-0.775,0 -1.406,0.632 -1.406,1.406l0,0.049l-16.636,-3.755c-0.97,-0.22 -1.645,-1.066 -1.645,-2.06l0,-3.376c0.387,0 0.703,-0.313 0.703,-0.703l0,-1.406c0,-0.39 -0.316,-0.703 -0.703,-0.703l0,-0.703c0,-0.387 0.316,-0.703 0.703,-0.703Zm2.812,1.406c-0.387,0 -0.703,0.313 -0.703,0.703l0,1.406c0,0.39 0.316,0.703 0.703,0.703c0.387,0 0.703,-0.313 0.703,-0.703l0,-1.406c0,-0.39 -0.316,-0.703 -0.703,-0.703Zm3.516,0c-0.387,0 -0.703,0.313 -0.703,0.703l0,1.406c0,0.39 0.316,0.703 0.703,0.703c0.387,0 0.703,-0.313 0.703,-0.703l0,-1.406c0,-0.39 -0.316,-0.703 -0.703,-0.703Zm3.516,0c-0.387,0 -0.703,0.313 -0.703,0.703l0,1.406c0,0.39 0.316,0.703 0.703,0.703c0.387,0 0.703,-0.313 0.703,-0.703l0,-1.406c0,-0.39 -0.316,-0.703 -0.703,-0.703Zm3.516,0c-0.387,0 -0.703,0.313 -0.703,0.703l0,1.406c0,0.39 0.316,0.703 0.703,0.703c0.387,0 0.703,-0.313 0.703,-0.703l0,-1.406c0,-0.39 -0.316,-0.703 -0.703,-0.703Zm3.516,0c-0.387,0 -0.703,0.313 -0.703,0.703l0,1.406c0,0.39 0.316,0.703 0.703,0.703c0.387,0 0.703,-0.313 0.703,-0.703l0,-1.406c0,-0.39 -0.316,-0.703 -0.703,-0.703Zm3.516,0c-0.387,0 -0.703,0.313 -0.703,0.703l0,1.406c0,0.39 0.316,0.703 0.703,0.703c0.387,0 0.703,-0.313 0.703,-0.703l0,-1.406c0,-0.39 -0.316,-0.703 -0.703,-0.703Zm3.516,0c-0.387,0 -0.703,0.313 -0.703,0.703l0,1.406c0,0.39 0.316,0.703 0.703,0.703c0.387,0 0.703,-0.313 0.703,-0.703l0,-1.406c0,-0.39 -0.316,-0.703 -0.703,-0.703Zm3.516,0c-0.387,0 -0.703,0.313 -0.703,0.703l0,1.406c0,0.39 0.316,0.703 0.703,0.703c0.387,0 0.703,-0.313 0.703,-0.703l0,-1.406c0,-0.39 -0.316,-0.703 -0.703,-0.703Zm3.516,0c-0.387,0 -0.703,0.313 -0.703,0.703l0,1.406c0,0.39 0.316,0.703 0.703,0.703c0.387,0 0.703,-0.313 0.703,-0.703l0,-1.406c0,-0.39 -0.316,-0.703 -0.703,-0.703Zm3.516,0c-0.387,0 -0.703,0.313 -0.703,0.703l0,1.406c0,0.39 0.316,0.703 0.703,0.703c0.387,0 0.703,-0.313 0.703,-0.703l0,-1.406c0,-0.39 -0.316,-0.703 -0.703,-0.703Zm3.516,0c-0.387,0 -0.703,0.313 -0.703,0.703l0,1.406c0,0.39 0.316,0.703 0.703,0.703c0.387,0 0.703,-0.313 0.703,-0.703l0,-1.406c0,-0.39 -0.316,-0.703 -0.703,-0.703Zm2.109,9.635l0,17.084c0,0.777 -0.629,1.406 -1.406,1.406l-36.562,0c-0.777,0 -1.406,-0.629 -1.406,-1.406l0,-17.084l16.875,3.812l0,2.725c0,0.777 0.629,1.406 1.406,1.406l2.812,0c0.777,0 1.406,-0.629 1.406,-1.406l0,-2.727l16.875,-3.81Zm-21.094,2.318l2.812,0l0,4.219l-2.812,0l0,-4.219Zm-16.172,11.953c-0.387,0 -0.703,0.313 -0.703,0.703c0,0.39 0.316,0.703 0.703,0.703l29.531,0c0.387,0 0.703,-0.313 0.703,-0.703c0,-0.39 -0.316,-0.703 -0.703,-0.703l-29.531,0Zm32.344,0c-0.387,0 -0.703,0.313 -0.703,0.703c0,0.39 0.316,0.703 0.703,0.703l2.812,0c0.387,0 0.703,-0.313 0.703,-0.703c0,-0.39 -0.316,-0.703 -0.703,-0.703l-2.812,0Z" style="fill:#f8b81f;fill-rule:nonzero;"/></svg>