<?xml version="1.0" encoding="UTF-8" standalone="no"?><!DOCTYPE svg PUBLIC "-//W3C//DTD SVG 1.1//EN" "http://www.w3.org/Graphics/SVG/1.1/DTD/svg11.dtd"><svg width="100%" height="100%" viewBox="0 0 45 45" version="1.1" xmlns="http://www.w3.org/2000/svg" xmlns:xlink="http://www.w3.org/1999/xlink" xml:space="preserve" xmlns:serif="http://www.serif.com/" style="fill-rule:evenodd;clip-rule:evenodd;stroke-linejoin:round;stroke-miterlimit:2;"><path d="M22.5,1.406c-1.807,0.008 -3.581,0.493 -5.14,1.406c-2.595,0.098 -4.408,1.941 -4.704,4.852c-0.13,1.311 -0.099,2.634 0.092,3.937c0.038,0.233 0.059,0.468 0.063,0.703c0,0.131 -0.021,0.263 -0.063,0.394c-0.104,0.003 -0.209,0.016 -0.31,0.041c-1.16,0.309 -1.645,2.005 -1.125,3.945c0.227,0.84 0.601,1.548 1.046,2.061c-1.903,-0.284 -4.124,-0.466 -6.735,-0.466c-0.389,0 -0.703,0.315 -0.703,0.703l0,18.281c0,0.388 0.314,0.703 0.703,0.703c7.822,0 12.042,1.647 14.062,2.818c0.003,0.773 0.633,1.401 1.406,1.401l2.812,0c0.776,0 1.406,-0.631 1.406,-1.406l0,-0.014c2.008,-1.17 6.205,-2.799 14.062,-2.799c0.389,0 0.703,-0.315 0.703,-0.703l0,-18.281c0,-0.388 -0.314,-0.703 -0.703,-0.703c-2.613,0 -4.836,0.181 -6.74,0.466c0.442,-0.515 0.811,-1.228 1.031,-2.061c0.52,-1.934 -0.001,-3.629 -1.126,-3.945c-0.099,-0.025 -0.2,-0.038 -0.302,-0.041c-0.121,-0.829 -0.337,-1.641 -0.647,-2.42l0,-0.077c0.333,0.04 0.66,0.125 0.971,0.253c0.359,0.149 0.77,-0.02 0.919,-0.379c0.056,-0.134 0.068,-0.281 0.037,-0.422c-1.174,-5.147 -4.999,-8.248 -10.315,-8.248l-0.703,-0Zm0,1.406l0.703,0c4.268,0 7.348,2.18 8.613,6.033c-0.473,-0.092 -0.964,0.032 -1.336,0.338c-0.405,0.441 -0.487,1.089 -0.203,1.616c0.375,0.91 0.589,1.879 0.633,2.862c0.02,0.388 0.35,0.687 0.737,0.667c0.122,-0.006 0.241,-0.044 0.343,-0.111c0.056,-0.042 0.122,-0.072 0.191,-0.085c0.169,0.056 0.478,0.914 0.126,2.215c-0.352,1.301 -1.013,1.842 -1.217,1.842c-0.323,-0.013 -0.613,0.197 -0.703,0.507c-0.048,0.167 -0.104,0.333 -0.159,0.5c-2.639,0.601 -4.444,1.398 -5.629,2.089c-0.206,-0.118 -0.44,-0.191 -0.694,-0.191l-2.812,0c-0.255,0 -0.49,0.073 -0.696,0.192c-1.19,-0.694 -2.998,-1.495 -5.659,-2.098c-0.056,-0.162 -0.121,-0.323 -0.169,-0.485c-0.086,-0.297 -0.357,-0.503 -0.667,-0.505l-0.014,0c-0.204,0 -0.872,-0.549 -1.217,-1.843c-0.345,-1.294 -0.035,-2.173 0.126,-2.215c0.07,0.012 0.134,0.042 0.19,0.085c0.329,0.206 0.764,0.107 0.97,-0.222c0.064,-0.103 0.101,-0.22 0.107,-0.341c0.017,-0.363 0.057,-0.724 0.119,-1.082c0.037,-0.385 0.018,-0.774 -0.056,-1.154c-0.168,-1.2 -0.189,-2.416 -0.063,-3.621c0.217,-2.243 1.538,-3.586 3.514,-3.586c0.152,0 0.3,-0.049 0.422,-0.14c1.352,-0.835 2.911,-1.273 4.5,-1.266Zm-4.098,4.307c-0.415,0.038 -0.807,0.259 -1.049,0.629l-1.125,1.708c-0.208,0.328 -0.111,0.763 0.217,0.971c0.32,0.203 0.743,0.117 0.957,-0.196l1.125,-1.71l1.104,0.536c2.014,0.977 4.223,1.487 6.461,1.49l1.794,0c0.388,0 0.703,-0.315 0.703,-0.703c0,-0.388 -0.315,-0.703 -0.703,-0.703l-1.794,0c-2.027,-0.003 -4.027,-0.465 -5.85,-1.35l-1.096,-0.534c-0.239,-0.117 -0.496,-0.16 -0.744,-0.137Zm20.27,12.572l0,16.875c-6.876,0.086 -11.015,1.419 -13.359,2.609l0,-16.676c0,-0.003 -0.001,-0.006 -0.001,-0.01c1.945,-1.135 5.945,-2.704 13.361,-2.799Zm-32.344,0.001c7.38,0.096 11.401,1.679 13.359,2.817l0,16.674c-2.343,-1.192 -6.467,-2.531 -13.359,-2.616l-0,-16.875Zm2.109,2.807c-0.389,0 -0.703,0.315 -0.703,0.703c0,0.388 0.314,0.703 0.703,0.703l1.406,0c0.389,0 0.703,-0.315 0.703,-0.703c0,-0.388 -0.314,-0.703 -0.703,-0.703l-1.406,0Zm12.656,0l2.812,0l0.001,18.281l-2.814,0l0,-18.281Zm14.062,0c-0.389,0 -0.703,0.315 -0.703,0.703c0,0.388 0.314,0.703 0.703,0.703l1.406,0c0.389,0 0.703,-0.315 0.703,-0.703c0,-0.388 -0.314,-0.703 -0.703,-0.703l-1.406,0Zm-26.719,3.516c-0.389,0 -0.703,0.315 -0.703,0.703c0,0.388 0.314,0.703 0.703,0.703l1.406,0c0.389,0 0.703,-0.315 0.703,-0.703c0,-0.388 -0.314,-0.703 -0.703,-0.703l-1.406,0Zm26.719,0c-0.389,0 -0.703,0.315 -0.703,0.703c0,0.388 0.314,0.703 0.703,0.703l1.406,0c0.389,0 0.703,-0.315 0.703,-0.703c0,-0.388 -0.314,-0.703 -0.703,-0.703l-1.406,0Zm-26.719,3.516c-0.389,0 -0.703,0.315 -0.703,0.703c0,0.388 0.314,0.703 0.703,0.703l1.406,0c0.389,0 0.703,-0.315 0.703,-0.703c0,-0.388 -0.314,-0.703 -0.703,-0.703l-1.406,0Zm26.719,0c-0.389,0 -0.703,0.315 -0.703,0.703c0,0.388 0.314,0.703 0.703,0.703l1.406,0c0.389,0 0.703,-0.315 0.703,-0.703c0,-0.388 -0.314,-0.703 -0.703,-0.703l-1.406,0Zm-26.719,3.516c-0.389,0 -0.703,0.315 -0.703,0.703c0,0.388 0.314,0.703 0.703,0.703l1.406,0c0.389,0 0.703,-0.315 0.703,-0.703c0,-0.388 -0.314,-0.703 -0.703,-0.703l-1.406,0Zm26.719,0c-0.389,0 -0.703,0.315 -0.703,0.703c0,0.388 0.314,0.703 0.703,0.703l1.406,0c0.389,0 0.703,-0.315 0.703,-0.703c0,-0.388 -0.314,-0.703 -0.703,-0.703l-1.406,0Z" style="fill:#ee4a62;fill-rule:nonzero;"/></svg>