<?xml version="1.0" encoding="UTF-8" standalone="no"?><!DOCTYPE svg PUBLIC "-//W3C//DTD SVG 1.1//EN" "http://www.w3.org/Graphics/SVG/1.1/DTD/svg11.dtd"><svg width="100%" height="100%" viewBox="0 0 45 45" version="1.1" xmlns="http://www.w3.org/2000/svg" xmlns:xlink="http://www.w3.org/1999/xlink" xml:space="preserve" xmlns:serif="http://www.serif.com/" style="fill-rule:evenodd;clip-rule:evenodd;stroke-linejoin:round;stroke-miterlimit:2;"><path d="M27.422,1.406c-1.162,0 -2.109,0.948 -2.109,2.109l0,0.832c-0.22,-0.08 -0.456,-0.129 -0.703,-0.129l-5.625,0c-1.162,0 -2.109,0.948 -2.109,2.109l0,2.571c-0.154,-0.088 -0.313,-0.165 -0.494,-0.211l-4.076,-1.093c-0.541,-0.143 -1.11,-0.071 -1.599,0.211c-0.486,0.28 -0.838,0.736 -0.983,1.28l-5.098,19.017c-0.299,1.126 0.368,2.282 1.494,2.585l0.934,0.25l-4.944,0c-1.162,0 -2.109,0.948 -2.109,2.109l0,4.219c0,1.162 0.948,2.109 2.109,2.109l3.516,0l0,3.516c0,1.162 0.948,2.109 2.109,2.109c1.162,0 2.109,-0.948 2.109,-2.109l0,-3.516l25.312,0l0,3.516c0,1.162 0.948,2.109 2.109,2.109c1.162,0 2.109,-0.948 2.109,-2.109l0,-3.516l3.516,0c1.162,0 2.109,-0.948 2.109,-2.109l0,-4.219c0,-1.162 -0.948,-2.109 -2.109,-2.109l-2.109,0l0,-20.391c0,-1.162 -0.948,-2.109 -2.109,-2.109l-2.812,0c-0.247,0 -0.483,0.049 -0.703,0.129l0,-5.051c0,-1.162 -0.948,-2.109 -2.109,-2.109l-5.625,0Zm0,1.406l5.625,0c0.387,0 0.703,0.316 0.703,0.703l0,27.422l-7.031,0l0,-27.422c0,-0.387 0.316,-0.703 0.703,-0.703Zm-8.438,2.812l5.625,0c0.387,0 0.703,0.316 0.703,0.703l0,24.609l-7.031,0l0,-24.609c0,-0.387 0.316,-0.703 0.703,-0.703Zm9.844,0c-0.39,0 -0.703,0.313 -0.703,0.703c0,0.39 0.313,0.703 0.703,0.703l2.812,0c0.39,0 0.703,-0.313 0.703,-0.703c0,-0.39 -0.313,-0.703 -0.703,-0.703l-2.812,0Zm-8.438,2.812c-0.39,0 -0.703,0.313 -0.703,0.703c0,0.39 0.313,0.703 0.703,0.703l2.812,0c0.39,0 0.703,-0.313 0.703,-0.703c0,-0.39 -0.313,-0.703 -0.703,-0.703l-2.812,0Zm-8.633,0.492c0.063,0 0.124,0.008 0.184,0.025l4.076,1.09c0.374,0.102 0.599,0.489 0.497,0.865l-5.098,19.015c-0.047,0.181 -0.165,0.332 -0.327,0.428c-0.162,0.093 -0.352,0.118 -0.533,0.069l-4.076,-1.09c-0.374,-0.102 -0.596,-0.489 -0.494,-0.865l5.095,-19.015c0.047,-0.181 0.165,-0.332 0.327,-0.428c0.107,-0.06 0.228,-0.093 0.349,-0.093Zm24.101,0.915l2.812,0c0.387,0 0.703,0.316 0.703,0.703l0,20.391l-4.219,0l0,-1.406l2.812,0c0.39,0 0.703,-0.313 0.703,-0.703c0,-0.39 -0.313,-0.703 -0.703,-0.703l-2.812,0l0,-14.062l2.812,0c0.39,0 0.703,-0.313 0.703,-0.703c0,-0.39 -0.313,-0.703 -0.703,-0.703l-2.812,0l0,-2.109c0,-0.387 0.316,-0.703 0.703,-0.703Zm-23.882,0.634c-0.269,0.036 -0.508,0.233 -0.582,0.514c-0.102,0.374 0.124,0.761 0.497,0.862l2.719,0.725c0.06,0.016 0.121,0.025 0.181,0.025c0.31,0 0.596,-0.206 0.678,-0.519c0.102,-0.376 -0.124,-0.761 -0.497,-0.862l-2.716,-0.728c-0.093,-0.025 -0.19,-0.03 -0.28,-0.016Zm4.897,4.518l0,15.941l-4.406,0c0.135,-0.195 0.244,-0.412 0.308,-0.648l4.098,-15.293Zm-9.261,11.78c-0.272,0.038 -0.511,0.233 -0.585,0.514c-0.102,0.376 0.124,0.761 0.497,0.862l2.716,0.728c0.06,0.016 0.121,0.025 0.184,0.025c0.31,0 0.596,-0.209 0.678,-0.522c0.102,-0.374 -0.124,-0.761 -0.497,-0.862l-2.719,-0.725c-0.093,-0.027 -0.187,-0.033 -0.275,-0.019Zm12.777,1.349c-0.39,0 -0.703,0.313 -0.703,0.703c0,0.39 0.313,0.703 0.703,0.703l2.812,0c0.39,0 0.703,-0.313 0.703,-0.703c0,-0.39 -0.313,-0.703 -0.703,-0.703l-2.812,0Zm8.438,0c-0.39,0 -0.703,0.313 -0.703,0.703c0,0.39 0.313,0.703 0.703,0.703l2.812,0c0.39,0 0.703,-0.313 0.703,-0.703c0,-0.39 -0.313,-0.703 -0.703,-0.703l-2.812,0Zm-26.719,4.219l40.781,0c0.387,0 0.703,0.316 0.703,0.703l0,4.219c0,0.387 -0.316,0.703 -0.703,0.703l-40.781,0c-0.387,0 -0.703,-0.316 -0.703,-0.703l0,-4.219c0,-0.387 0.316,-0.703 0.703,-0.703Zm2.812,1.406c-0.423,0 -0.703,0.313 -0.703,0.703l0,1.406c0,0.39 0.28,0.703 0.703,0.703c0.423,0 0.703,-0.313 0.703,-0.703l0,-1.406c0,-0.39 -0.28,-0.703 -0.703,-0.703Zm3.516,0c-0.423,0 -0.703,0.313 -0.703,0.703l0,1.406c0,0.39 0.28,0.703 0.703,0.703c0.423,0 0.703,-0.313 0.703,-0.703l0,-1.406c0,-0.39 -0.28,-0.703 -0.703,-0.703Zm3.516,0c-0.423,0 -0.703,0.313 -0.703,0.703l0,1.406c0,0.39 0.28,0.703 0.703,0.703c0.423,0 0.703,-0.313 0.703,-0.703l0,-1.406c0,-0.39 -0.28,-0.703 -0.703,-0.703Zm3.516,0c-0.423,0 -0.703,0.313 -0.703,0.703l0,1.406c0,0.39 0.28,0.703 0.703,0.703c0.423,0 0.703,-0.313 0.703,-0.703l0,-1.406c0,-0.39 -0.28,-0.703 -0.703,-0.703Zm3.516,0c-0.423,0 -0.703,0.313 -0.703,0.703l0,1.406c0,0.39 0.28,0.703 0.703,0.703c0.423,0 0.703,-0.313 0.703,-0.703l0,-1.406c0,-0.39 -0.28,-0.703 -0.703,-0.703Zm3.516,0c-0.423,0 -0.703,0.313 -0.703,0.703l0,1.406c0,0.39 0.28,0.703 0.703,0.703c0.423,0 0.703,-0.313 0.703,-0.703l0,-1.406c0,-0.39 -0.28,-0.703 -0.703,-0.703Zm3.516,0c-0.423,0 -0.703,0.313 -0.703,0.703l0,1.406c0,0.39 0.28,0.703 0.703,0.703c0.423,0 0.703,-0.313 0.703,-0.703l0,-1.406c0,-0.39 -0.28,-0.703 -0.703,-0.703Zm3.516,0c-0.423,0 -0.703,0.313 -0.703,0.703l0,1.406c0,0.39 0.28,0.703 0.703,0.703c0.423,0 0.703,-0.313 0.703,-0.703l0,-1.406c0,-0.39 -0.28,-0.703 -0.703,-0.703Zm3.516,0c-0.423,0 -0.703,0.313 -0.703,0.703l0,1.406c0,0.39 0.28,0.703 0.703,0.703c0.423,0 0.703,-0.313 0.703,-0.703l0,-1.406c0,-0.39 -0.28,-0.703 -0.703,-0.703Zm3.516,0c-0.423,0 -0.703,0.313 -0.703,0.703l0,1.406c0,0.39 0.28,0.703 0.703,0.703c0.423,0 0.703,-0.313 0.703,-0.703l0,-1.406c0,-0.39 -0.28,-0.703 -0.703,-0.703Zm3.516,0c-0.423,0 -0.703,0.313 -0.703,0.703l0,1.406c0,0.39 0.28,0.703 0.703,0.703c0.423,0 0.703,-0.313 0.703,-0.703l0,-1.406c0,-0.39 -0.28,-0.703 -0.703,-0.703Zm-33.047,5.625l1.406,0l0,3.516c0,0.387 -0.316,0.703 -0.703,0.703c-0.387,0 -0.703,-0.316 -0.703,-0.703l0,-3.516Zm29.531,0l1.406,0l0,3.516c0,0.387 -0.316,0.703 -0.703,0.703c-0.387,0 -0.703,-0.316 -0.703,-0.703l0,-3.516Z" style="fill:#0ecd73;fill-rule:nonzero;"/></svg>