<?xml version="1.0" encoding="UTF-8" standalone="no"?><!DOCTYPE svg PUBLIC "-//W3C//DTD SVG 1.1//EN" "http://www.w3.org/Graphics/SVG/1.1/DTD/svg11.dtd"><svg width="100%" height="100%" viewBox="0 0 45 45" version="1.1" xmlns="http://www.w3.org/2000/svg" xmlns:xlink="http://www.w3.org/1999/xlink" xml:space="preserve" xmlns:serif="http://www.serif.com/" style="fill-rule:evenodd;clip-rule:evenodd;stroke-linejoin:round;stroke-miterlimit:2;"><path d="M22.5,1.736c-0.434,0 -0.868,0.132 -1.239,0.401l-18.982,13.749c-0.547,0.393 -0.873,1.033 -0.873,1.706l0,23.893c0,1.162 0.948,2.109 2.109,2.109l37.969,0c1.162,0 2.109,-0.948 2.109,-2.109l0,-23.893c0,-0.673 -0.327,-1.313 -0.871,-1.706l-18.984,-13.749c-0.371,-0.269 -0.805,-0.401 -1.239,-0.401Zm0,1.406c0.143,0 0.288,0.044 0.412,0.135l18.987,13.749c0.181,0.132 0.288,0.343 0.288,0.566l0,1.033l-5.625,4.073l0,-5.823c0,-0.775 -0.632,-1.406 -1.406,-1.406l-25.312,0c-0.775,0 -1.406,0.632 -1.406,1.406l0,5.823l-5.625,-4.073l0,-1.033c0,-0.222 0.107,-0.437 0.291,-0.569l18.982,-13.747c0.126,-0.091 0.272,-0.135 0.415,-0.135Zm-12.656,13.733l25.312,0l0,6.842l-11.832,8.569c-0.492,0.357 -1.156,0.357 -1.648,0l-5.746,-4.161l4.46,0c0.39,0 0.703,-0.316 0.703,-0.703c0,-0.387 -0.313,-0.703 -0.703,-0.703l-5.625,0c-0.192,0 -0.368,0.077 -0.494,0.203l-4.427,-3.205l0,-6.842Zm-7.031,3.485l18.037,13.063c0.494,0.357 1.071,0.536 1.651,0.536c0.58,0 1.156,-0.179 1.651,-0.536l18.037,-13.063l0,17.762l-11.624,-7.083c-0.332,-0.201 -0.764,-0.096 -0.967,0.236c-0.201,0.33 -0.096,0.764 0.233,0.967l9.745,5.935c-0.124,0.129 -0.201,0.302 -0.201,0.494l0,1.406c0,0.387 0.313,0.703 0.703,0.703c0.39,0 0.703,-0.316 0.703,-0.703l0,-1.165l1.406,0.857l0,1.714c0,0.387 -0.316,0.703 -0.703,0.703l-37.969,0c-0.387,0 -0.703,-0.316 -0.703,-0.703l0,-1.714l1.406,-0.857l0,1.165c0,0.387 0.313,0.703 0.703,0.703c0.39,0 0.703,-0.316 0.703,-0.703l0,-1.406c0,-0.192 -0.077,-0.365 -0.203,-0.492l9.748,-5.938c0.33,-0.203 0.437,-0.637 0.233,-0.967c-0.201,-0.335 -0.634,-0.437 -0.967,-0.236l-11.624,7.083l0,-17.762Zm11.953,0.733c-0.39,0 -0.703,0.316 -0.703,0.703c0,0.387 0.313,0.703 0.703,0.703l2.812,0c0.39,0 0.703,-0.316 0.703,-0.703c0,-0.387 -0.313,-0.703 -0.703,-0.703l-2.812,0Zm5.625,0c-0.39,0 -0.703,0.316 -0.703,0.703c0,0.387 0.313,0.703 0.703,0.703l9.844,0c0.39,0 0.703,-0.316 0.703,-0.703c0,-0.387 -0.313,-0.703 -0.703,-0.703l-9.844,0Zm-5.625,2.812c-0.39,0 -0.703,0.316 -0.703,0.703c0,0.387 0.313,0.703 0.703,0.703l14.062,0c0.39,0 0.703,-0.316 0.703,-0.703c0,-0.387 -0.313,-0.703 -0.703,-0.703l-14.062,0Zm8.438,2.812c-0.39,0 -0.703,0.316 -0.703,0.703c0,0.387 0.313,0.703 0.703,0.703l3.516,0c0.39,0 0.703,-0.316 0.703,-0.703c0,-0.387 -0.313,-0.703 -0.703,-0.703l-3.516,0Zm-14.766,11.25c-0.39,0 -0.703,0.316 -0.703,0.703l0,1.406c0,0.387 0.313,0.703 0.703,0.703c0.39,0 0.703,-0.316 0.703,-0.703l0,-1.406c0,-0.387 -0.313,-0.703 -0.703,-0.703Zm3.516,0c-0.39,0 -0.703,0.316 -0.703,0.703l0,1.406c0,0.387 0.313,0.703 0.703,0.703c0.39,0 0.703,-0.316 0.703,-0.703l0,-1.406c0,-0.387 -0.313,-0.703 -0.703,-0.703Zm3.516,0c-0.39,0 -0.703,0.316 -0.703,0.703l0,1.406c0,0.387 0.313,0.703 0.703,0.703c0.39,0 0.703,-0.316 0.703,-0.703l0,-1.406c0,-0.387 -0.313,-0.703 -0.703,-0.703Zm3.516,0c-0.39,0 -0.703,0.316 -0.703,0.703l0,1.406c0,0.387 0.313,0.703 0.703,0.703c0.39,0 0.703,-0.316 0.703,-0.703l0,-1.406c0,-0.387 -0.313,-0.703 -0.703,-0.703Zm3.516,0c-0.39,0 -0.703,0.316 -0.703,0.703l0,1.406c0,0.387 0.313,0.703 0.703,0.703c0.39,0 0.703,-0.316 0.703,-0.703l0,-1.406c0,-0.387 -0.313,-0.703 -0.703,-0.703Zm3.516,0c-0.39,0 -0.703,0.316 -0.703,0.703l0,1.406c0,0.387 0.313,0.703 0.703,0.703c0.39,0 0.703,-0.316 0.703,-0.703l0,-1.406c0,-0.387 -0.313,-0.703 -0.703,-0.703Zm3.516,0c-0.39,0 -0.703,0.316 -0.703,0.703l0,1.406c0,0.387 0.313,0.703 0.703,0.703c0.39,0 0.703,-0.316 0.703,-0.703l0,-1.406c0,-0.387 -0.313,-0.703 -0.703,-0.703Zm3.516,0c-0.39,0 -0.703,0.316 -0.703,0.703l0,1.406c0,0.387 0.313,0.703 0.703,0.703c0.39,0 0.703,-0.316 0.703,-0.703l0,-1.406c0,-0.387 -0.313,-0.703 -0.703,-0.703Zm3.516,0c-0.39,0 -0.703,0.316 -0.703,0.703l0,1.406c0,0.387 0.313,0.703 0.703,0.703c0.39,0 0.703,-0.316 0.703,-0.703l0,-1.406c0,-0.387 -0.313,-0.703 -0.703,-0.703Z" style="fill:#8e56ff;fill-rule:nonzero;"/></svg>