<?xml version="1.0" encoding="UTF-8" standalone="no"?><!DOCTYPE svg PUBLIC "-//W3C//DTD SVG 1.1//EN" "http://www.w3.org/Graphics/SVG/1.1/DTD/svg11.dtd"><svg width="100%" height="100%" viewBox="0 0 41 41" version="1.1" xmlns="http://www.w3.org/2000/svg" xmlns:xlink="http://www.w3.org/1999/xlink" xml:space="preserve" xmlns:serif="http://www.serif.com/" style="fill-rule:evenodd;clip-rule:evenodd;stroke-linejoin:round;stroke-miterlimit:2;"><path d="M12.431,6.607c-3.201,0 -5.824,2.623 -5.824,5.824l0,16.138c0,3.201 2.623,5.824 5.824,5.824l16.138,0c3.201,0 5.824,-2.623 5.824,-5.824l0,-16.138c0,-3.201 -2.623,-5.824 -5.824,-5.824l-16.138,0Zm0,2.526l16.138,0c1.836,0 3.298,1.462 3.298,3.298l0,16.138c0,1.836 -1.462,3.298 -3.298,3.298l-16.138,0c-1.836,0 -3.298,-1.462 -3.298,-3.298l0,-16.138c0,-1.836 1.462,-3.298 3.298,-3.298Zm9.332,2.526l0,12.63c0,1.41 -1.116,2.526 -2.526,2.526c-1.41,0 -2.526,-1.116 -2.526,-2.526c0,-1.41 1.116,-2.526 2.526,-2.526l0,-2.526c-2.775,0 -5.052,2.277 -5.052,5.052c0,2.775 2.277,5.052 5.052,5.052c2.775,0 5.052,-2.277 5.052,-5.052l0,-7.719c1.046,0.81 2.285,1.384 3.698,1.404l0.037,-2.526c-2.079,-0.03 -3.735,-1.7 -3.735,-3.789l-2.526,0Z" style="fill:#919598;fill-rule:nonzero;"/></svg>