<?xml version="1.0" encoding="UTF-8" standalone="no"?><!DOCTYPE svg PUBLIC "-//W3C//DTD SVG 1.1//EN" "http://www.w3.org/Graphics/SVG/1.1/DTD/svg11.dtd"><svg width="100%" height="100%" viewBox="0 0 40 40" version="1.1" xmlns="http://www.w3.org/2000/svg" xmlns:xlink="http://www.w3.org/1999/xlink" xml:space="preserve" xmlns:serif="http://www.serif.com/" style="fill-rule:evenodd;clip-rule:evenodd;stroke-linejoin:round;stroke-miterlimit:2;"><path d="M10.904,5.165c-1.804,0 -3.267,1.461 -3.267,3.265c0,1.804 1.462,3.298 3.265,3.298c1.803,0 3.267,-1.495 3.267,-3.298c0,-1.803 -1.461,-3.265 -3.265,-3.265Zm15.939,8.654c-2.743,0 -4.313,1.435 -5.066,2.861l-0.08,0l0,-2.477l-5.406,0l0,18.16l5.633,0l0,-8.99c0,-2.369 0.179,-4.658 3.11,-4.658c2.889,-0 2.931,2.701 2.931,4.808l0,8.84l5.633,0l0,-9.975c0,-4.881 -1.049,-8.57 -6.756,-8.57Zm-18.757,0.384l0,18.16l5.638,0l0,-18.16l-5.638,0Z" style="fill:#919598;fill-rule:nonzero;"/></svg>