<?xml version="1.0" encoding="UTF-8" standalone="no"?><!DOCTYPE svg PUBLIC "-//W3C//DTD SVG 1.1//EN" "http://www.w3.org/Graphics/SVG/1.1/DTD/svg11.dtd"><svg width="100%" height="100%" viewBox="0 0 41 41" version="1.1" xmlns="http://www.w3.org/2000/svg" xmlns:xlink="http://www.w3.org/1999/xlink" xml:space="preserve" xmlns:serif="http://www.serif.com/" style="fill-rule:evenodd;clip-rule:evenodd;stroke-linejoin:round;stroke-miterlimit:2;"><path d="M14.777,6.607c-4.485,0 -8.17,3.68 -8.17,8.17l0,11.446c0,4.485 3.68,8.17 8.17,8.17l11.446,0c4.485,0 8.17,-3.68 8.17,-8.17l0,-11.446c0,-4.485 -3.68,-8.17 -8.17,-8.17l-11.446,0Zm0,2.526l11.446,0c3.123,0 5.644,2.521 5.644,5.644l0,11.446c0,3.123 -2.521,5.644 -5.644,5.644l-11.446,0c-3.123,0 -5.644,-2.521 -5.644,-5.644l0,-11.446c0,-3.123 2.521,-5.644 5.644,-5.644Zm13.183,2.763c-0.636,0 -1.145,0.508 -1.145,1.145c0,0.636 0.508,1.145 1.145,1.145c0.636,0 1.145,-0.508 1.145,-1.145c0,-0.636 -0.508,-1.145 -1.145,-1.145Zm-7.46,1.026c-4.169,0 -7.578,3.409 -7.578,7.578c0,4.169 3.409,7.578 7.578,7.578c4.169,0 7.578,-3.409 7.578,-7.578c0,-4.169 -3.409,-7.578 -7.578,-7.578Zm0,2.526c2.807,0 5.052,2.245 5.052,5.052c0,2.807 -2.245,5.052 -5.052,5.052c-2.807,0 -5.052,-2.245 -5.052,-5.052c0,-2.807 2.245,-5.052 5.052,-5.052Z" style="fill:#919598;fill-rule:nonzero;"/></svg>